<svg xmlns="http://www.w3.org/2000/svg" width="180" height="276" viewBox="0 0 180 276"><rect width="100%" height="100%" fill="#DDDDDD"/><path fill="#999999" d="M44.36 144.455h3.12v2.22h-9.6v-2.22h3.51v-10.12q0-.6.04-1.23l-2.5 2.09q-.21.16-.42.21-.21.04-.4 0-.18-.03-.33-.12-.14-.09-.21-.2l-.94-1.29 5.29-4.5h2.44zm11.58.1q.73 0 1.28-.21t.93-.59q.38-.37.57-.88.19-.52.19-1.12 0-1.43-.79-2.16t-2.18-.73-2.19.73q-.79.73-.79 2.16 0 .6.19 1.12.2.51.57.88.38.38.93.59.56.21 1.29.21m0-13.19q-.66 0-1.14.2-.48.21-.8.55t-.47.78q-.15.45-.15.94 0 .52.13 1 .12.49.42.87.3.37.8.6.49.23 1.21.23t1.21-.23.79-.6q.3-.38.43-.87.12-.48.12-1 0-.49-.15-.94-.16-.44-.47-.78t-.79-.55q-.48-.2-1.14-.2m2.93 6.26q1.58.52 2.34 1.58.75 1.06.75 2.6 0 1.15-.44 2.09-.43.93-1.23 1.59-.79.66-1.9 1.02t-2.45.36q-1.35 0-2.46-.36t-1.9-1.02-1.23-1.59q-.44-.94-.44-2.09 0-1.54.76-2.6t2.34-1.58q-1.26-.53-1.89-1.5t-.63-2.34q0-.98.4-1.83.4-.86 1.12-1.49t1.73-.98q1-.35 2.2-.35t2.2.35 1.72.98 1.12 1.49q.41.85.41 1.83 0 1.37-.63 2.34t-1.89 1.5m17.35.37q0 2.27-.49 3.95-.48 1.67-1.34 2.76t-2.03 1.63q-1.17.53-2.53.53-1.35 0-2.51-.53-1.16-.54-2.01-1.63t-1.33-2.76q-.48-1.68-.48-3.95 0-2.28.48-3.94.48-1.67 1.33-2.76.85-1.1 2.01-1.63t2.51-.53q1.36 0 2.53.53t2.03 1.63q.86 1.09 1.34 2.76.49 1.66.49 3.94m-3.06 0q0-1.88-.28-3.12-.27-1.23-.74-1.96-.46-.74-1.06-1.03t-1.25-.29q-.63 0-1.23.29-.59.29-1.05 1.03-.45.73-.72 1.96-.27 1.24-.27 3.12 0 1.89.27 3.12.27 1.24.72 1.97.46.73 1.05 1.03.6.29 1.23.29.65 0 1.25-.29.6-.3 1.06-1.03.47-.73.74-1.97.28-1.23.28-3.12m22.11 4.71-1.57 1.55-4.07-4.07-4.1 4.09-1.57-1.55 4.1-4.11-3.91-3.92 1.56-1.56 3.91 3.92 3.89-3.89 1.58 1.56-3.9 3.9zm14.45 1.21h4.45q.48 0 .77.27.28.27.28.71v1.78h-11.91v-.98q0-.3.13-.63t.4-.6l5.27-5.28q.66-.67 1.18-1.28t.87-1.21.54-1.22q.18-.62.18-1.3 0-.63-.18-1.1-.18-.48-.51-.8t-.79-.49q-.46-.16-1.04-.16-.53 0-.98.15t-.79.42q-.35.27-.59.63t-.36.79q-.21.56-.53.74t-.94.08l-1.56-.28q.18-1.24.7-2.19.52-.94 1.29-1.57t1.78-.95q1-.31 2.15-.31 1.2 0 2.2.35.99.35 1.7 1t1.1 1.56q.4.91.4 2.03 0 .96-.28 1.78-.28.81-.76 1.56-.47.74-1.11 1.44-.63.69-1.33 1.41l-3.91 4q.56-.17 1.12-.26t1.06-.09m7.72-14.59h11.99v1.28q0 .58-.12.93-.12.36-.24.6l-6.58 13.53q-.2.42-.58.72-.37.29-.99.29h-2.15l6.71-13.26q.23-.41.45-.75t.5-.65h-8.31q-.27 0-.48-.21-.2-.2-.2-.48zm24.21 0-5.14 6.3-.6.74q.5-.25 1.08-.39t1.26-.14q.98 0 1.91.33.93.32 1.64.98.71.65 1.14 1.62t.43 2.27q0 1.21-.44 2.27-.45 1.07-1.25 1.86-.81.79-1.94 1.25-1.13.45-2.5.45-1.39 0-2.5-.44-1.1-.45-1.88-1.24-.78-.8-1.2-1.92-.41-1.13-.41-2.49 0-1.23.5-2.52t1.54-2.68l4.14-5.56q.22-.28.63-.49.41-.2.95-.2zm-4.47 15.12q.71 0 1.3-.24t1.02-.67q.43-.44.67-1.02t.24-1.26q0-.75-.23-1.34-.23-.6-.65-1.01t-1.01-.63-1.29-.22q-.71 0-1.29.24-.57.24-.98.67t-.64 1.01-.23 1.25q0 .72.2 1.32.2.59.59 1.01t.97.65q.57.24 1.33.24"/></svg>